inDegrees=no
num_controls=7
num_derivatives=13
num_iterations=124
num_multipliers=7
num_parameters=0
num_slacks=7
num_states=26
objective=0.445869
objective_accelerations=0.057087
objective_balance=0.003712
objective_effort=0.023062
objective_height=0.356457
objective_ligament=0.005552
solver_duration=1682.719390
status=Solve_Succeeded
success=true
DataType=double
version=3
OpenSimVersion=4.5
endheader
time	/jointset/ground_pelvis/pelvis_tilt/value	/jointset/ground_pelvis/pelvis_tx/value	/jointset/ground_pelvis/pelvis_ty/value	/jointset/hip_l/hip_flexion_l/value	/jointset/hip_l/hip_adduction_l/value	/jointset/hip_l/hip_rotation_l/value	/jointset/back/lumbar_extension/value	/jointset/patellofemoral_l/patellar_flexion_l/value	/jointset/knee_l/knee_flexion_l/value	/jointset/knee_l/knee_adduction_l/value	/jointset/knee_l/knee_rotation_l/value	/jointset/ankle_l/ankle_angle_l/value	/jointset/subtalar_l/subtalar_angle_l/value	/jointset/ground_pelvis/pelvis_tilt/speed	/jointset/ground_pelvis/pelvis_tx/speed	/jointset/ground_pelvis/pelvis_ty/speed	/jointset/hip_l/hip_flexion_l/speed	/jointset/hip_l/hip_adduction_l/speed	/jointset/hip_l/hip_rotation_l/speed	/jointset/back/lumbar_extension/speed	/jointset/patellofemoral_l/patellar_flexion_l/speed	/jointset/knee_l/knee_flexion_l/speed	/jointset/knee_l/knee_adduction_l/speed	/jointset/knee_l/knee_rotation_l/speed	/jointset/ankle_l/ankle_angle_l/speed	/jointset/subtalar_l/subtalar_angle_l/speed	/forceset/tau_hip_flexion_l	/forceset/tau_hip_adduction_l	/forceset/tau_hip_rotation_l	/forceset/tau_knee_flexion_l	/forceset/tau_ankle_angle_l	/forceset/tau_subtalar_angle_l	/forceset/tau_lumbar_extension	lambda_cid13_p0	lambda_cid13_p1	lambda_cid13_p2	lambda_cid13_p3	lambda_cid13_p4	lambda_cid13_p5	lambda_cid14_p0	/jointset/ground_pelvis/pelvis_tilt/accel	/jointset/ground_pelvis/pelvis_tx/accel	/jointset/ground_pelvis/pelvis_ty/accel	/jointset/hip_l/hip_flexion_l/accel	/jointset/hip_l/hip_adduction_l/accel	/jointset/hip_l/hip_rotation_l/accel	/jointset/back/lumbar_extension/accel	/jointset/patellofemoral_l/patellar_flexion_l/accel	/jointset/knee_l/knee_flexion_l/accel	/jointset/knee_l/knee_adduction_l/accel	/jointset/knee_l/knee_rotation_l/accel	/jointset/ankle_l/ankle_angle_l/accel	/jointset/subtalar_l/subtalar_angle_l/accel	gamma_cid13_p0	gamma_cid13_p1	gamma_cid13_p2	gamma_cid13_p3	gamma_cid13_p4	gamma_cid13_p5	gamma_cid14_p0
1.5	-0.3701120958903629	-0.02664613462163013	0.7627190991496013	1.105749002088934	-0.4345641280956374	-0.2164694914281989	-0.2251740490683258	0.7940764934063667	0.7940764934063602	-0.1331132505698102	-0.147221331072265	0.1187929297702443	-0.02397899909747877	0.6835818051727597	0.2828493239981735	0.5289650835732077	-2.458844056503459	0.2097539318013979	-0.7165140853927623	0.3154015937743134	-1.987172627891888	-1.987172627891888	-0.1219885287793369	0.1293429597175909	-0.3739539042951798	0.05075863567799422	-0.1752540303743569	0.0131556789516099	-0.008141251328637503	-0.2033370137060904	0.04147063761289046	0.05557767220977427	0.1688064103721802	-18.67172613499343	-24.15102445620618	7.264306978385763	-8.113796595106843	-520.4615017289979	-73.59701536303199	-25.49560905506281	0.6654081551798449	0.7140740418276695	-0.5103940537691563	-1.29497660103014	0.7098968027564528	-0.1785973423435998	1.467427596295626	-1.293811809907466	-1.293811809907425	0.1155084298622531	0.2225589665675226	-0.4670359026342092	0.5265604802864059	5.116017376438431e-07	5.188992739819289e-07	-2.833628097130911e-06	-1.019465241453606e-07	7.132869913721606e-07	-7.280021121104746e-08	4.681952407732708e-07
1.51	-0.3632430908858796	-0.02378226055453398	0.7679821621395266	1.081097640347618	-0.4324325812861549	-0.2236423958896777	-0.2219479627923928	0.7741424364181831	0.7741424364181902	-0.1343302904642635	-0.1459181230928714	0.1150301755835074	-0.02344685994089021	0.6901207087821996	0.2898840028464607	0.5235338096052548	-2.471079689152432	0.2165309057146933	-0.7179446858316906	0.3297773620233894	-1.999359584780693	-1.99935958478071	-0.1214341222637826	0.1312994704798672	-0.3785359890753084	0.05566542178776678	-0.1693356356897527	0.01291077695277618	-0.007810386208529824	-0.200201352416555	0.04101430027802447	0.05450659792101616	0.1639770781523369	-18.60317001878679	-23.68143740555159	7.170682198645355	-7.799165725886182	-516.4711776589529	-73.39451154009942	-26.39450410796621	0.6333779425798179	0.691972414585876	-0.5764411719632563	-1.135538591806328	0.6579400845366494	-0.1066378398849026	1.416906530879353	-1.139335027326634	-1.139335027329164	0.02336015304506742	0.1820067511943456	-0.4446173676272178	0.4721445693623197	4.218771990875008e-07	9.709950668691015e-07	-1.89979145965186e-06	6.629983899014837e-08	6.009547707511386e-07	4.181101921138755e-08	4.071602135249333e-07
1.52	-0.3563116475495514	-0.02084927817730362	0.7731875229690414	1.056334385880817	-0.4302339962577553	-0.2308258756445895	-0.2185792678156359	0.7540948703813191	0.7540948703813404	-0.1355421956154315	-0.144595388081829	0.1112234360285841	-0.02286577154459599	0.6960694715417902	0.2966709860250152	0.5174246514911061	-2.481222601600425	0.2231615755848118	-0.7186291440793174	0.3439233339390956	-2.009874437627881	-2.009874437627915	-0.1209615801225061	0.1332483660476098	-0.3827509779324383	0.06054848361912497	-0.1634172410051468	0.01266587495394209	-0.007479521088412362	-0.1970656911270204	0.04055796294315814	0.05343552363225751	0.1591477459324953	-18.53818953960042	-23.21546155055273	7.082474223443537	-7.515042408625138	-512.5491817498956	-73.24048958833984	-27.29340927074999	0.5473799852100351	0.6645349078811603	-0.6459708830083112	-0.8764325608343384	0.6806359941210858	-0.02936890408332562	1.421468329621657	-0.959391001584138	-0.9593910015841363	0.09913555500671327	0.2210359276607516	-0.3936167180344818	0.5218156246035361	3.845851899724129e-07	1.237394383892864e-06	-1.448271228603275e-06	1.5378181613994e-07	5.648214478960857e-07	1.268621997066785e-07	3.818483645386405e-07
1.53	-0.3493236648294784	-0.01784970942612168	0.7783284982407375	1.031479999472205	-0.427969951107092	-0.2380128417930709	-0.2150704973700982	0.7339504784779357	0.7339504784779494	-0.1367497576526449	-0.1432534282520548	0.1073764019218534	-0.0222360761366319	0.7014185663189642	0.3031960054960455	0.5106637256251381	-2.489294876909797	0.2296201593945773	-0.7186700702666782	0.3577803069127155	-2.018711255818561	-2.018711255818574	-0.1205393090748854	0.1351265328762398	-0.3865841627033033	0.06539072480304797	-0.1573661028802971	0.01219106491840233	-0.007170503667073612	-0.1942567234979398	0.04046028844544028	0.05218232990963743	0.154193949665769	-18.37420706865441	-22.68576533248489	6.981867111428994	-7.239299511577411	-508.7768827921033	-72.98375012247543	-28.19258911507195	0.5124162394865899	0.6395029285335621	-0.7070282921799648	-0.7186270790010648	0.6243900394510883	0.02301225286054556	1.360244542872899	-0.8020043955536496	-0.8020043955505114	0.01566515104561204	0.1683046491959608	-0.3673770323340418	0.4654123745306377	4.030027433886572e-07	1.306491195311756e-06	-1.509212179387054e-06	1.55451633179908e-07	6.09649453917374e-07	1.805058271543793e-07	3.944923924557697e-07
